<svg width="337" height="44" viewBox="0 0 337 44" fill="none" xmlns="http://www.w3.org/2000/svg">
    <path d="M237.403 0.477539H236.447V43.8256H237.403V0.477539Z" fill="white"/>
    <path d="M250.99 20H251.947V16.502H256.083V20H257.04V12.135H256.083V15.699H251.947V12.135H250.99V20Z" fill="white"/>
    <path d="M260.488 19.373C259.685 19.373 259.399 18.999 259.399 18.405C259.399 17.558 260.246 17.272 261.401 17.272H262.193V17.987C262.193 18.878 261.456 19.373 260.488 19.373ZM260.4 20.099C261.247 20.099 261.764 19.813 262.193 19.274V20H263.106V16.205C263.106 14.599 262.105 14.148 261.005 14.148C259.894 14.148 258.849 14.632 258.728 15.941H259.641C259.729 15.237 260.169 14.907 260.961 14.907C261.841 14.907 262.193 15.292 262.193 16.205V16.623H261.368C259.894 16.623 258.486 17.074 258.486 18.405C258.486 19.582 259.333 20.099 260.4 20.099Z"
          fill="white"/>
    <path d="M266.022 17.778C266.121 16.92 266.198 15.754 266.231 14.995H268.343V19.23H265.648C265.835 18.911 265.945 18.449 266.022 17.778ZM264.944 20H269.311L269.377 21.397H270.114V19.23H269.234V14.247H265.439C265.439 14.247 265.351 16.381 265.186 17.723C265.087 18.46 265.01 19.109 264.548 19.23H264.141V21.397H264.878L264.944 20Z"
          fill="white"/>
    <path d="M274.505 13.026C274.824 13.026 275.088 12.762 275.088 12.443C275.088 12.124 274.824 11.86 274.505 11.86C274.186 11.86 273.922 12.124 273.922 12.443C273.922 12.762 274.186 13.026 274.505 13.026ZM272.437 13.026C272.756 13.026 273.02 12.762 273.02 12.443C273.02 12.124 272.756 11.86 272.437 11.86C272.118 11.86 271.854 12.124 271.854 12.443C271.854 12.762 272.118 13.026 272.437 13.026ZM273.559 20.099C274.857 20.099 275.814 19.494 276.012 18.339H275.099C274.978 19.01 274.461 19.34 273.57 19.34C272.393 19.34 271.766 18.614 271.722 17.305H276.056V17.008C276.056 14.951 274.802 14.148 273.471 14.148C271.887 14.148 270.776 15.358 270.776 17.096V17.184C270.776 18.955 271.931 20.099 273.559 20.099ZM271.755 16.568C271.909 15.545 272.536 14.907 273.471 14.907C274.417 14.907 275.033 15.38 275.121 16.568H271.755Z"
          fill="white"/>
    <path d="M279.88 20H280.771V17.041L282.993 20H284.027L281.684 16.942L283.818 14.247H282.828L280.771 16.953V14.247H279.88V16.953L277.823 14.247H276.844L278.978 16.942L276.635 20H277.658L279.88 17.041V20Z"
          fill="white"/>
    <path d="M288.889 20H289.802V14.247H288.889V16.667H286.062V14.247H285.149V20H286.062V17.437H288.889V20Z"
          fill="white"/>
    <path d="M296.598 20H297.511V14.247H296.598V20ZM291.648 20H293.584C294.794 20 295.784 19.439 295.784 18.119V18.086C295.784 16.744 294.783 16.26 293.584 16.26H292.561V14.247H291.648V20ZM292.561 19.274V16.975H293.639C294.541 16.975 294.871 17.382 294.871 18.086V18.119C294.871 18.9 294.497 19.274 293.639 19.274H292.561Z"
          fill="white"/>
    <path d="M301.726 13.191C302.518 13.191 303.178 12.575 303.222 11.739H302.452C302.408 12.179 302.188 12.553 301.726 12.553C301.286 12.553 301.099 12.168 301.066 11.739H300.274C300.318 12.575 300.934 13.191 301.726 13.191ZM300.274 20L303.211 15.567V20H304.124V14.247H303.211L300.274 18.68V14.247H299.361V20H300.274Z"
          fill="white"/>
    <path d="M311.246 20.099C312.874 20.099 314.084 18.966 314.084 17.085V17.041C314.084 15.358 313.05 14.148 311.444 14.148C310.388 14.148 309.585 14.72 309.189 15.578H309.145C309.277 13.664 309.849 12.476 311.708 12.355L311.873 12.344C312.764 12.289 313.237 12.234 313.622 12.08V11.288C313.204 11.442 312.643 11.475 311.862 11.519L311.642 11.53C308.892 11.673 308.43 14.005 308.43 16.26V16.722C308.43 18.966 309.607 20.099 311.246 20.099ZM311.257 19.34C310.091 19.34 309.376 18.471 309.376 17.173V17.151C309.376 15.754 310.146 14.907 311.356 14.907C312.522 14.907 313.138 15.71 313.138 17.074V17.096C313.138 18.526 312.412 19.34 311.257 19.34Z"
          fill="white"/>
    <path d="M317.035 19.373C316.232 19.373 315.946 18.999 315.946 18.405C315.946 17.558 316.793 17.272 317.948 17.272H318.74V17.987C318.74 18.878 318.003 19.373 317.035 19.373ZM316.947 20.099C317.794 20.099 318.311 19.813 318.74 19.274V20H319.653V16.205C319.653 14.599 318.652 14.148 317.552 14.148C316.441 14.148 315.396 14.632 315.275 15.941H316.188C316.276 15.237 316.716 14.907 317.508 14.907C318.388 14.907 318.74 15.292 318.74 16.205V16.623H317.915C316.441 16.623 315.033 17.074 315.033 18.405C315.033 19.582 315.88 20.099 316.947 20.099Z"
          fill="white"/>
    <path d="M325.187 20H326.1V14.247H325.187V16.667H322.36V14.247H321.447V20H322.36V17.437H325.187V20Z" fill="white"/>
    <path d="M331.411 20H332.522L329.849 16.953L332.313 14.247H331.246L328.859 16.931V14.247H327.946V20H328.859V17.063L331.411 20Z"
          fill="white"/>
    <path d="M254.664 33H255.577V27.247H254.664V29.667H251.837V27.247H250.924V33H251.837V30.437H254.664V33Z"
          fill="white"/>
    <path d="M258.952 32.373C258.149 32.373 257.863 31.999 257.863 31.405C257.863 30.558 258.71 30.272 259.865 30.272H260.657V30.987C260.657 31.878 259.92 32.373 258.952 32.373ZM258.864 33.099C259.711 33.099 260.228 32.813 260.657 32.274V33H261.57V29.205C261.57 27.599 260.569 27.148 259.469 27.148C258.358 27.148 257.313 27.632 257.192 28.941H258.105C258.193 28.237 258.633 27.907 259.425 27.907C260.305 27.907 260.657 28.292 260.657 29.205V29.623H259.832C258.358 29.623 256.95 30.074 256.95 31.405C256.95 32.582 257.797 33.099 258.864 33.099Z"
          fill="white"/>
    <path d="M263.364 33H270.437V27.247H269.524V32.23H267.357V27.247H266.444V32.23H264.277V27.247H263.364V33Z"
          fill="white"/>
    <path d="M274.634 33.099C275.932 33.099 276.889 32.494 277.087 31.339H276.174C276.053 32.01 275.536 32.34 274.645 32.34C273.468 32.34 272.841 31.614 272.797 30.305H277.131V30.008C277.131 27.951 275.877 27.148 274.546 27.148C272.962 27.148 271.851 28.358 271.851 30.096V30.184C271.851 31.955 273.006 33.099 274.634 33.099ZM272.83 29.568C272.984 28.545 273.611 27.907 274.546 27.907C275.492 27.907 276.108 28.38 276.196 29.568H272.83Z"
          fill="white"/>
    <path d="M282.183 28.017V27.247H278.531V33H279.444V28.017H282.183Z" fill="white"/>
    <path d="M285.613 33.099C287.252 33.099 288.451 31.9 288.451 30.162V30.074C288.451 28.347 287.252 27.148 285.624 27.148C283.996 27.148 282.797 28.358 282.797 30.085V30.173C282.797 31.856 283.974 33.099 285.613 33.099ZM285.624 32.34C284.458 32.34 283.743 31.482 283.743 30.173V30.085C283.743 28.765 284.469 27.907 285.624 27.907C286.768 27.907 287.505 28.765 287.505 30.096V30.173C287.505 31.471 286.779 32.34 285.624 32.34Z"
          fill="white"/>
    <path d="M292.776 33H295.031C296.285 33 297.088 32.45 297.088 31.306V31.273C297.088 30.525 296.615 30.129 295.889 29.975C296.538 29.81 296.813 29.26 296.813 28.743V28.71C296.813 27.577 295.867 27.247 294.789 27.247H292.776V33ZM294.778 27.973C295.471 27.973 295.856 28.149 295.856 28.754V28.787C295.856 29.414 295.548 29.678 294.789 29.678H293.689V27.973H294.778ZM294.943 30.404C295.735 30.404 296.131 30.679 296.131 31.328V31.361C296.131 31.999 295.746 32.274 294.943 32.274H293.689V30.404H294.943Z"
          fill="white"/>
    <path d="M301.316 32.34C300.194 32.34 299.424 31.647 299.424 30.173V30.085C299.424 28.611 300.238 27.907 301.305 27.907C302.273 27.907 303.076 28.633 303.076 30.085V30.173C303.076 31.57 302.46 32.34 301.316 32.34ZM298.544 35.002H299.457V32.054C299.787 32.626 300.458 33.099 301.404 33.099C302.988 33.099 304.022 31.889 304.022 30.129V30.041C304.022 28.248 302.911 27.148 301.404 27.148C300.568 27.148 299.787 27.654 299.457 28.215V27.247H298.544V35.002Z"
          fill="white"/>
    <path d="M307.795 33.099C309.093 33.099 310.05 32.494 310.248 31.339H309.335C309.214 32.01 308.697 32.34 307.806 32.34C306.629 32.34 306.002 31.614 305.958 30.305H310.292V30.008C310.292 27.951 309.038 27.148 307.707 27.148C306.123 27.148 305.012 28.358 305.012 30.096V30.184C305.012 31.955 306.167 33.099 307.795 33.099ZM305.991 29.568C306.145 28.545 306.772 27.907 307.707 27.907C308.653 27.907 309.269 28.38 309.357 29.568H305.991Z"
          fill="white"/>
    <path d="M314.366 33H314.784L316.687 28.149V33H317.589V27.247H316.313L314.641 31.548L313.013 27.247H311.704V33H312.485V28.149L314.366 33Z"
          fill="white"/>
    <path d="M321.802 33.099C323.1 33.099 324.057 32.494 324.255 31.339H323.342C323.221 32.01 322.704 32.34 321.813 32.34C320.636 32.34 320.009 31.614 319.965 30.305H324.299V30.008C324.299 27.951 323.045 27.148 321.714 27.148C320.13 27.148 319.019 28.358 319.019 30.096V30.184C319.019 31.955 320.174 33.099 321.802 33.099ZM319.998 29.568C320.152 28.545 320.779 27.907 321.714 27.907C322.66 27.907 323.276 28.38 323.364 29.568H319.998Z"
          fill="white"/>
    <path d="M329.44 33H330.353V27.247H329.44V29.667H326.613V27.247H325.7V33H326.613V30.437H329.44V33Z" fill="white"/>
    <path d="M333.112 33L336.049 28.567V33H336.962V27.247H336.049L333.112 31.68V27.247H332.199V33H333.112Z"
          fill="white"/>
    <path d="M22.9166 0C10.7674 0 0.918213 9.84952 0.918213 21.9973C0.918213 34.1455 10.7674 44 22.9166 44C35.0641 44 44.9182 34.1455 44.9182 21.9973C44.9183 9.84952 35.0641 0 22.9166 0ZM19.7957 31.3567L18.1741 36.1652C12.0796 34.1099 7.98538 28.3775 7.98538 21.9006C7.98538 15.4164 12.0875 9.68206 18.1925 7.63211L19.8082 12.4436C15.7719 13.7986 13.0604 17.5991 13.0604 21.9006C13.0604 26.1977 15.7674 29.9977 19.7957 31.3567ZM27.3627 36.2623L25.8431 31.4201C29.9899 30.1186 32.7762 26.2928 32.7762 21.9006C32.7762 17.5634 30.0345 13.7531 25.9531 12.4193L27.5302 7.59496C33.7035 9.61263 37.8512 15.3619 37.8512 21.9006C37.8512 28.5222 33.6361 34.2937 27.3627 36.2623Z"
          fill="#02BAE8"/>
    <path d="M221.224 26.1252L223.629 29.0057C221.171 31.5955 218.053 32.309 215.569 32.309C213.217 32.309 211.446 31.939 209.993 31.1991C206.795 29.6135 205.183 26.3895 205.183 22.4785C205.183 16.5326 209.2 12.1987 215.12 12.1987C221.673 12.1987 224.871 17.114 224.448 23.5091L209.438 23.5355C209.517 25.1475 210.442 26.6802 211.737 27.4466C212.821 28.1073 214.089 28.4508 215.833 28.4508C217.657 28.4507 219.559 27.8165 221.224 26.1252ZM209.491 20.0737H220.088C219.824 17.7482 217.921 15.7927 214.855 15.7927C211.737 15.7926 209.861 17.9596 209.491 20.0737ZM108.755 31.8069H114.172L105.663 21.9499L114.04 12.6743H108.702L102.307 20.1H100.43V12.6743H96.2815V31.8069H100.43V24.1962H102.333L108.755 31.8069ZM126.381 16.1097C122.919 16.1097 120.62 18.8052 120.62 22.2406C120.62 25.676 122.919 28.3715 126.381 28.3715C129.922 28.3715 132.115 25.7289 132.115 22.2406C132.115 18.8316 129.975 16.1097 126.381 16.1097ZM127.094 12.1987C132.485 12.1987 136.449 16.4269 136.449 22.2406C136.449 27.9751 132.512 32.309 127.094 32.309C124.452 32.309 122.39 31.4105 120.911 29.7985V39.7612H116.735V12.6743H120.805V14.9734C122.39 13.0707 124.452 12.1987 127.094 12.1987ZM181.559 12.6743H164.434V16.5061H170.909V31.8069H175.084V16.5061H181.559V12.6743ZM93.401 12.6743H76.2768V16.5061H82.7512V31.8069H86.9265V16.5061H93.4009L93.401 12.6743ZM71.203 22.2406C71.203 18.6731 68.6661 16.0305 65.2307 16.0305C61.8217 16.0305 59.2584 18.5938 59.2584 22.2406C59.2584 25.8346 61.7425 28.4772 65.2307 28.4772C68.6397 28.4772 71.203 25.861 71.203 22.2406ZM54.9773 22.2406C54.9773 16.5061 59.4169 12.1987 65.2306 12.1987C71.0443 12.1987 75.4839 16.5062 75.4839 22.2406C75.4839 27.975 71.0443 32.309 65.2306 32.309C59.4169 32.309 54.9773 27.9751 54.9773 22.2406ZM201.801 12.6743V31.8069H197.705V19.4659L187.689 31.8069H184.412V12.6743H188.509V24.9889L198.55 12.6743H201.801ZM161.58 31.8069H157.431V12.6743H161.58V31.8069ZM150.957 25.2796C150.957 23.5619 149.768 22.3727 148.129 22.3727H143.928V28.2657H148.129C149.768 28.2658 150.957 26.9973 150.957 25.2796ZM155.08 25.2796C155.08 29.1114 152.305 31.8069 148.262 31.8069H139.832V12.6743H143.954V18.858H148.632C152.595 18.8581 155.08 21.4214 155.08 25.2796Z"
          fill="white"/>
</svg>
